<?xml version="1.0" encoding="UTF-8"?>
<!DOCTYPE svg PUBLIC "-//W3C//DTD SVG 1.1//EN" "http://www.w3.org/Graphics/SVG/1.1/DTD/svg11.dtd">
<svg xmlns="http://www.w3.org/2000/svg" xmlns:xlink="http://www.w3.org/1999/xlink" version="1.1" width="800px" height="800px" viewBox="-0.5 -0.5 800 800"><defs/><g><g><rect x="0" y="0" width="800" height="800" fill="#f5f5f5" stroke="none" pointer-events="all"/></g><g/><g><ellipse cx="400.12" cy="400" rx="125" ry="40" fill="none" stroke="rgb(0, 0, 0)" stroke-width="4" transform="rotate(30,400.12,400)" pointer-events="all"/></g><g><ellipse cx="400.12" cy="400" rx="125" ry="40" fill="none" stroke="rgb(0, 0, 0)" stroke-width="4" transform="rotate(-210,400.12,400)" pointer-events="all"/></g><g><ellipse cx="400.12" cy="400" rx="125" ry="40" fill="none" stroke="rgb(0, 0, 0)" stroke-width="4" transform="rotate(-90,400.12,400)" pointer-events="all"/></g><g><rect x="260.12" y="260" width="280" height="280" rx="22.4" ry="22.4" fill="none" stroke="rgb(0, 0, 0)" stroke-width="4" pointer-events="all"/></g><g><ellipse cx="475.12" cy="330" rx="10" ry="10" fill="rgb(255, 255, 255)" stroke="rgb(0, 0, 0)" stroke-width="4" pointer-events="all"/></g><g><ellipse cx="425.12" cy="500" rx="10" ry="10" fill="rgb(255, 255, 255)" stroke="rgb(0, 0, 0)" stroke-width="4" pointer-events="all"/></g><g><ellipse cx="300.12" cy="370" rx="10" ry="10" fill="rgb(255, 255, 255)" stroke="rgb(0, 0, 0)" stroke-width="4" pointer-events="all"/></g><g/><g><path d="M 320.24 560 L 320.24 540" fill="none" stroke="rgb(0, 0, 0)" stroke-width="4" stroke-miterlimit="10" pointer-events="stroke"/></g><g><path d="M 340.24 560 L 340.24 540" fill="none" stroke="rgb(0, 0, 0)" stroke-width="4" stroke-miterlimit="10" pointer-events="stroke"/></g><g><path d="M 360.24 560 L 360.24 540" fill="none" stroke="rgb(0, 0, 0)" stroke-width="4" stroke-miterlimit="10" pointer-events="stroke"/></g><g><path d="M 380.24 560 L 380.24 540" fill="none" stroke="rgb(0, 0, 0)" stroke-width="4" stroke-miterlimit="10" pointer-events="stroke"/></g><g><path d="M 400.24 560 L 400.24 540" fill="none" stroke="rgb(0, 0, 0)" stroke-width="4" stroke-miterlimit="10" pointer-events="stroke"/></g><g><path d="M 420.24 560 L 420.24 540" fill="none" stroke="rgb(0, 0, 0)" stroke-width="4" stroke-miterlimit="10" pointer-events="stroke"/></g><g><path d="M 440.24 560 L 440.24 540" fill="none" stroke="rgb(0, 0, 0)" stroke-width="4" stroke-miterlimit="10" pointer-events="stroke"/></g><g><path d="M 460.24 560 L 460.24 540" fill="none" stroke="rgb(0, 0, 0)" stroke-width="4" stroke-miterlimit="10" pointer-events="stroke"/></g><g><path d="M 480.01 560 L 480.01 540" fill="none" stroke="rgb(0, 0, 0)" stroke-width="4" stroke-miterlimit="10" pointer-events="stroke"/></g><g/><g><path d="M 320.24 260 L 320.24 240" fill="none" stroke="rgb(0, 0, 0)" stroke-width="4" stroke-miterlimit="10" pointer-events="stroke"/></g><g><path d="M 340.24 260 L 340.24 240" fill="none" stroke="rgb(0, 0, 0)" stroke-width="4" stroke-miterlimit="10" pointer-events="stroke"/></g><g><path d="M 360.24 260 L 360.24 240" fill="none" stroke="rgb(0, 0, 0)" stroke-width="4" stroke-miterlimit="10" pointer-events="stroke"/></g><g><path d="M 380.24 260 L 380.24 240" fill="none" stroke="rgb(0, 0, 0)" stroke-width="4" stroke-miterlimit="10" pointer-events="stroke"/></g><g><path d="M 400.24 260 L 400.24 240" fill="none" stroke="rgb(0, 0, 0)" stroke-width="4" stroke-miterlimit="10" pointer-events="stroke"/></g><g><path d="M 420.24 260 L 420.24 240" fill="none" stroke="rgb(0, 0, 0)" stroke-width="4" stroke-miterlimit="10" pointer-events="stroke"/></g><g><path d="M 440.24 260 L 440.24 240" fill="none" stroke="rgb(0, 0, 0)" stroke-width="4" stroke-miterlimit="10" pointer-events="stroke"/></g><g><path d="M 460.24 260 L 460.24 240" fill="none" stroke="rgb(0, 0, 0)" stroke-width="4" stroke-miterlimit="10" pointer-events="stroke"/></g><g><path d="M 480.01 260 L 480.01 240" fill="none" stroke="rgb(0, 0, 0)" stroke-width="4" stroke-miterlimit="10" pointer-events="stroke"/></g><g/><g><path d="M 260.11 480 L 240.11 480" fill="none" stroke="rgb(0, 0, 0)" stroke-width="4" stroke-miterlimit="10" pointer-events="stroke"/></g><g><path d="M 260.11 460 L 240.11 460" fill="none" stroke="rgb(0, 0, 0)" stroke-width="4" stroke-miterlimit="10" pointer-events="stroke"/></g><g><path d="M 260.11 440 L 240.11 440" fill="none" stroke="rgb(0, 0, 0)" stroke-width="4" stroke-miterlimit="10" pointer-events="stroke"/></g><g><path d="M 260.11 420 L 240.11 420" fill="none" stroke="rgb(0, 0, 0)" stroke-width="4" stroke-miterlimit="10" pointer-events="stroke"/></g><g><path d="M 260.11 400 L 240.11 400" fill="none" stroke="rgb(0, 0, 0)" stroke-width="4" stroke-miterlimit="10" pointer-events="stroke"/></g><g><path d="M 260.11 380 L 240.11 380" fill="none" stroke="rgb(0, 0, 0)" stroke-width="4" stroke-miterlimit="10" pointer-events="stroke"/></g><g><path d="M 260.11 360 L 240.11 360" fill="none" stroke="rgb(0, 0, 0)" stroke-width="4" stroke-miterlimit="10" pointer-events="stroke"/></g><g><path d="M 260.11 340 L 240.11 340" fill="none" stroke="rgb(0, 0, 0)" stroke-width="4" stroke-miterlimit="10" pointer-events="stroke"/></g><g><path d="M 260.11 320 L 240.11 320" fill="none" stroke="rgb(0, 0, 0)" stroke-width="4" stroke-miterlimit="10" pointer-events="stroke"/></g><g/><g><path d="M 540.11 320 L 560.11 320" fill="none" stroke="rgb(0, 0, 0)" stroke-width="4" stroke-miterlimit="10" pointer-events="stroke"/></g><g><path d="M 540.11 340 L 560.11 340" fill="none" stroke="rgb(0, 0, 0)" stroke-width="4" stroke-miterlimit="10" pointer-events="stroke"/></g><g><path d="M 540.11 360 L 560.11 360" fill="none" stroke="rgb(0, 0, 0)" stroke-width="4" stroke-miterlimit="10" pointer-events="stroke"/></g><g><path d="M 540.11 380 L 560.11 380" fill="none" stroke="rgb(0, 0, 0)" stroke-width="4" stroke-miterlimit="10" pointer-events="stroke"/></g><g><path d="M 540.11 400 L 560.11 400" fill="none" stroke="rgb(0, 0, 0)" stroke-width="4" stroke-miterlimit="10" pointer-events="stroke"/></g><g><path d="M 540.11 420 L 560.11 420" fill="none" stroke="rgb(0, 0, 0)" stroke-width="4" stroke-miterlimit="10" pointer-events="stroke"/></g><g><path d="M 540.11 440 L 560.11 440" fill="none" stroke="rgb(0, 0, 0)" stroke-width="4" stroke-miterlimit="10" pointer-events="stroke"/></g><g><path d="M 540.11 460 L 560.11 460" fill="none" stroke="rgb(0, 0, 0)" stroke-width="4" stroke-miterlimit="10" pointer-events="stroke"/></g><g><path d="M 540.11 480 L 560.11 480" fill="none" stroke="rgb(0, 0, 0)" stroke-width="4" stroke-miterlimit="10" pointer-events="stroke"/></g></g></svg>