<?xml version="1.0" encoding="UTF-8"?>
<!DOCTYPE svg PUBLIC "-//W3C//DTD SVG 1.1//EN" "http://www.w3.org/Graphics/SVG/1.1/DTD/svg11.dtd">
<svg xmlns="http://www.w3.org/2000/svg" xmlns:xlink="http://www.w3.org/1999/xlink" version="1.1" width="183px" height="183px" viewBox="-0.5 -0.5 183 183"><defs/><g><g/><g><ellipse cx="90.56" cy="91" rx="62.5" ry="20" fill="none" stroke="rgb(0, 0, 0)" stroke-width="2" transform="rotate(30,90.56,91)" pointer-events="all"/></g><g><ellipse cx="90.56" cy="91" rx="62.5" ry="20" fill="none" stroke="rgb(0, 0, 0)" stroke-width="2" transform="rotate(-210,90.56,91)" pointer-events="all"/></g><g><ellipse cx="90.56" cy="91" rx="62.5" ry="20" fill="none" stroke="rgb(0, 0, 0)" stroke-width="2" transform="rotate(-90,90.56,91)" pointer-events="all"/></g><g><rect x="20.56" y="21" width="140" height="140" rx="11.2" ry="11.2" fill="none" stroke="rgb(0, 0, 0)" stroke-width="2" pointer-events="all"/></g><g><ellipse cx="128.06" cy="56" rx="5" ry="5" fill="rgb(255, 255, 255)" stroke="rgb(0, 0, 0)" stroke-width="2" pointer-events="all"/></g><g><ellipse cx="103.06" cy="141" rx="5" ry="5" fill="rgb(255, 255, 255)" stroke="rgb(0, 0, 0)" stroke-width="2" pointer-events="all"/></g><g><ellipse cx="40.56" cy="76" rx="5" ry="5" fill="rgb(255, 255, 255)" stroke="rgb(0, 0, 0)" stroke-width="2" pointer-events="all"/></g><g/><g><path d="M 50.62 171 L 50.62 161" fill="none" stroke="rgb(0, 0, 0)" stroke-width="2" stroke-miterlimit="10" pointer-events="stroke"/></g><g><path d="M 60.62 171 L 60.62 161" fill="none" stroke="rgb(0, 0, 0)" stroke-width="2" stroke-miterlimit="10" pointer-events="stroke"/></g><g><path d="M 70.62 171 L 70.62 161" fill="none" stroke="rgb(0, 0, 0)" stroke-width="2" stroke-miterlimit="10" pointer-events="stroke"/></g><g><path d="M 80.62 171 L 80.62 161" fill="none" stroke="rgb(0, 0, 0)" stroke-width="2" stroke-miterlimit="10" pointer-events="stroke"/></g><g><path d="M 90.62 171 L 90.62 161" fill="none" stroke="rgb(0, 0, 0)" stroke-width="2" stroke-miterlimit="10" pointer-events="stroke"/></g><g><path d="M 100.62 171 L 100.62 161" fill="none" stroke="rgb(0, 0, 0)" stroke-width="2" stroke-miterlimit="10" pointer-events="stroke"/></g><g><path d="M 110.62 171 L 110.62 161" fill="none" stroke="rgb(0, 0, 0)" stroke-width="2" stroke-miterlimit="10" pointer-events="stroke"/></g><g><path d="M 120.62 171 L 120.62 161" fill="none" stroke="rgb(0, 0, 0)" stroke-width="2" stroke-miterlimit="10" pointer-events="stroke"/></g><g><path d="M 130.5 171 L 130.5 161" fill="none" stroke="rgb(0, 0, 0)" stroke-width="2" stroke-miterlimit="10" pointer-events="stroke"/></g><g/><g><path d="M 50.62 21 L 50.62 11" fill="none" stroke="rgb(0, 0, 0)" stroke-width="2" stroke-miterlimit="10" pointer-events="stroke"/></g><g><path d="M 60.62 21 L 60.62 11" fill="none" stroke="rgb(0, 0, 0)" stroke-width="2" stroke-miterlimit="10" pointer-events="stroke"/></g><g><path d="M 70.62 21 L 70.62 11" fill="none" stroke="rgb(0, 0, 0)" stroke-width="2" stroke-miterlimit="10" pointer-events="stroke"/></g><g><path d="M 80.62 21 L 80.62 11" fill="none" stroke="rgb(0, 0, 0)" stroke-width="2" stroke-miterlimit="10" pointer-events="stroke"/></g><g><path d="M 90.62 21 L 90.62 11" fill="none" stroke="rgb(0, 0, 0)" stroke-width="2" stroke-miterlimit="10" pointer-events="stroke"/></g><g><path d="M 100.62 21 L 100.62 11" fill="none" stroke="rgb(0, 0, 0)" stroke-width="2" stroke-miterlimit="10" pointer-events="stroke"/></g><g><path d="M 110.62 21 L 110.62 11" fill="none" stroke="rgb(0, 0, 0)" stroke-width="2" stroke-miterlimit="10" pointer-events="stroke"/></g><g><path d="M 120.62 21 L 120.62 11" fill="none" stroke="rgb(0, 0, 0)" stroke-width="2" stroke-miterlimit="10" pointer-events="stroke"/></g><g><path d="M 130.5 21 L 130.5 11" fill="none" stroke="rgb(0, 0, 0)" stroke-width="2" stroke-miterlimit="10" pointer-events="stroke"/></g><g/><g><path d="M 20.56 131 L 10.56 131" fill="none" stroke="rgb(0, 0, 0)" stroke-width="2" stroke-miterlimit="10" pointer-events="stroke"/></g><g><path d="M 20.56 121 L 10.56 121" fill="none" stroke="rgb(0, 0, 0)" stroke-width="2" stroke-miterlimit="10" pointer-events="stroke"/></g><g><path d="M 20.56 111 L 10.56 111" fill="none" stroke="rgb(0, 0, 0)" stroke-width="2" stroke-miterlimit="10" pointer-events="stroke"/></g><g><path d="M 20.56 101 L 10.56 101" fill="none" stroke="rgb(0, 0, 0)" stroke-width="2" stroke-miterlimit="10" pointer-events="stroke"/></g><g><path d="M 20.56 91 L 10.56 91" fill="none" stroke="rgb(0, 0, 0)" stroke-width="2" stroke-miterlimit="10" pointer-events="stroke"/></g><g><path d="M 20.56 81 L 10.56 81" fill="none" stroke="rgb(0, 0, 0)" stroke-width="2" stroke-miterlimit="10" pointer-events="stroke"/></g><g><path d="M 20.56 71 L 10.56 71" fill="none" stroke="rgb(0, 0, 0)" stroke-width="2" stroke-miterlimit="10" pointer-events="stroke"/></g><g><path d="M 20.56 61 L 10.56 61" fill="none" stroke="rgb(0, 0, 0)" stroke-width="2" stroke-miterlimit="10" pointer-events="stroke"/></g><g><path d="M 20.56 51 L 10.56 51" fill="none" stroke="rgb(0, 0, 0)" stroke-width="2" stroke-miterlimit="10" pointer-events="stroke"/></g><g/><g><path d="M 160.56 51 L 170.56 51" fill="none" stroke="rgb(0, 0, 0)" stroke-width="2" stroke-miterlimit="10" pointer-events="stroke"/></g><g><path d="M 160.56 61 L 170.56 61" fill="none" stroke="rgb(0, 0, 0)" stroke-width="2" stroke-miterlimit="10" pointer-events="stroke"/></g><g><path d="M 160.56 71 L 170.56 71" fill="none" stroke="rgb(0, 0, 0)" stroke-width="2" stroke-miterlimit="10" pointer-events="stroke"/></g><g><path d="M 160.56 81 L 170.56 81" fill="none" stroke="rgb(0, 0, 0)" stroke-width="2" stroke-miterlimit="10" pointer-events="stroke"/></g><g><path d="M 160.56 91 L 170.56 91" fill="none" stroke="rgb(0, 0, 0)" stroke-width="2" stroke-miterlimit="10" pointer-events="stroke"/></g><g><path d="M 160.56 101 L 170.56 101" fill="none" stroke="rgb(0, 0, 0)" stroke-width="2" stroke-miterlimit="10" pointer-events="stroke"/></g><g><path d="M 160.56 111 L 170.56 111" fill="none" stroke="rgb(0, 0, 0)" stroke-width="2" stroke-miterlimit="10" pointer-events="stroke"/></g><g><path d="M 160.56 121 L 170.56 121" fill="none" stroke="rgb(0, 0, 0)" stroke-width="2" stroke-miterlimit="10" pointer-events="stroke"/></g><g><path d="M 160.56 131 L 170.56 131" fill="none" stroke="rgb(0, 0, 0)" stroke-width="2" stroke-miterlimit="10" pointer-events="stroke"/></g></g></svg>